<mxfile host="app.diagrams.net" modified="2022-09-10T14:14:41.424Z" agent="5.0 (Windows NT 10.0; Win64; x64) AppleWebKit/537.36 (KHTML, like Gecko) Chrome/105.0.0.0 Safari/537.36" etag="uWae2po9LfGCn_WSGYSh" version="20.3.0" type="github">
  <diagram id="FSqGW_gwmn6mpwqzGmPX" name="Страница 1">
    <mxGraphModel dx="1550" dy="835" grid="1" gridSize="10" guides="1" tooltips="1" connect="1" arrows="1" fold="1" page="1" pageScale="1" pageWidth="2336" pageHeight="1654" math="0" shadow="0">
      <root>
        <mxCell id="0" />
        <mxCell id="1" parent="0" />
        <mxCell id="iCD_IcLdnUCjqHumPRnd-8" style="edgeStyle=orthogonalEdgeStyle;rounded=1;orthogonalLoop=1;jettySize=auto;html=1;strokeColor=default;endArrow=none;endFill=0;" parent="1" source="iCD_IcLdnUCjqHumPRnd-10" target="iCD_IcLdnUCjqHumPRnd-12" edge="1">
          <mxGeometry relative="1" as="geometry">
            <Array as="points">
              <mxPoint x="350" y="510" />
            </Array>
          </mxGeometry>
        </mxCell>
        <mxCell id="iCD_IcLdnUCjqHumPRnd-9" style="edgeStyle=orthogonalEdgeStyle;rounded=1;orthogonalLoop=1;jettySize=auto;html=1;exitX=0.98;exitY=0.5;exitDx=0;exitDy=0;exitPerimeter=0;entryX=0;entryY=0.5;entryDx=0;entryDy=0;entryPerimeter=0;strokeColor=default;endArrow=none;endFill=0;" parent="1" edge="1">
          <mxGeometry relative="1" as="geometry">
            <mxPoint x="428.98" y="312" as="sourcePoint" />
            <mxPoint x="780" y="312" as="targetPoint" />
          </mxGeometry>
        </mxCell>
        <mxCell id="iCD_IcLdnUCjqHumPRnd-1" value="" style="shape=mxgraph.cisco.switches.workgroup_switch;sketch=0;html=1;pointerEvents=1;dashed=0;fillColor=#036897;strokeColor=#ffffff;strokeWidth=2;verticalLabelPosition=bottom;verticalAlign=top;align=center;outlineConnect=0;" parent="1" vertex="1">
          <mxGeometry x="330" y="270" width="101" height="50" as="geometry" />
        </mxCell>
        <mxCell id="iCD_IcLdnUCjqHumPRnd-7" style="edgeStyle=orthogonalEdgeStyle;rounded=1;orthogonalLoop=1;jettySize=auto;html=1;strokeColor=default;endArrow=none;endFill=0;startArrow=none;" parent="1" source="iCD_IcLdnUCjqHumPRnd-11" target="iCD_IcLdnUCjqHumPRnd-3" edge="1">
          <mxGeometry relative="1" as="geometry">
            <Array as="points">
              <mxPoint x="840" y="510" />
            </Array>
            <mxPoint x="780" y="590" as="targetPoint" />
          </mxGeometry>
        </mxCell>
        <mxCell id="iCD_IcLdnUCjqHumPRnd-2" value="" style="shape=mxgraph.cisco.switches.workgroup_switch;sketch=0;html=1;pointerEvents=1;dashed=0;fillColor=#036897;strokeColor=#ffffff;strokeWidth=2;verticalLabelPosition=bottom;verticalAlign=top;align=center;outlineConnect=0;" parent="1" vertex="1">
          <mxGeometry x="780" y="270" width="101" height="50" as="geometry" />
        </mxCell>
        <mxCell id="6-lfDugaZAaRlOOavOw_-10" style="edgeStyle=orthogonalEdgeStyle;rounded=1;orthogonalLoop=1;jettySize=auto;html=1;entryX=0.25;entryY=1;entryDx=0;entryDy=0;endArrow=none;endFill=0;" edge="1" parent="1" source="iCD_IcLdnUCjqHumPRnd-3" target="iCD_IcLdnUCjqHumPRnd-11">
          <mxGeometry relative="1" as="geometry">
            <Array as="points">
              <mxPoint x="805" y="480" />
            </Array>
          </mxGeometry>
        </mxCell>
        <mxCell id="iCD_IcLdnUCjqHumPRnd-3" value="" style="shape=mxgraph.cisco.switches.workgroup_switch;sketch=0;html=1;pointerEvents=1;dashed=0;fillColor=#036897;strokeColor=#ffffff;strokeWidth=2;verticalLabelPosition=bottom;verticalAlign=top;align=center;outlineConnect=0;" parent="1" vertex="1">
          <mxGeometry x="560" y="468" width="101" height="50" as="geometry" />
        </mxCell>
        <mxCell id="6-lfDugaZAaRlOOavOw_-23" style="edgeStyle=orthogonalEdgeStyle;rounded=1;orthogonalLoop=1;jettySize=auto;html=1;exitX=0.75;exitY=1;exitDx=0;exitDy=0;entryX=0.16;entryY=0.23;entryDx=0;entryDy=0;entryPerimeter=0;endArrow=none;endFill=0;" edge="1" parent="1" source="iCD_IcLdnUCjqHumPRnd-10" target="iCD_IcLdnUCjqHumPRnd-3">
          <mxGeometry relative="1" as="geometry">
            <Array as="points">
              <mxPoint x="385" y="480" />
            </Array>
          </mxGeometry>
        </mxCell>
        <mxCell id="iCD_IcLdnUCjqHumPRnd-10" value="&lt;b&gt;S1&lt;/b&gt;" style="text;html=1;strokeColor=none;fillColor=none;align=center;verticalAlign=middle;whiteSpace=wrap;rounded=0;fontColor=#FFFFFF;" parent="1" vertex="1">
          <mxGeometry x="340" y="292" width="60" height="30" as="geometry" />
        </mxCell>
        <mxCell id="iCD_IcLdnUCjqHumPRnd-11" value="&lt;b&gt;S3&lt;/b&gt;" style="text;html=1;strokeColor=none;fillColor=none;align=center;verticalAlign=middle;whiteSpace=wrap;rounded=0;fontColor=#FFFFFF;" parent="1" vertex="1">
          <mxGeometry x="790" y="292" width="60" height="30" as="geometry" />
        </mxCell>
        <mxCell id="iCD_IcLdnUCjqHumPRnd-12" value="&lt;b&gt;S2&lt;/b&gt;" style="text;html=1;strokeColor=none;fillColor=none;align=center;verticalAlign=middle;whiteSpace=wrap;rounded=0;fontColor=#FFFFFF;" parent="1" vertex="1">
          <mxGeometry x="570" y="490" width="60" height="30" as="geometry" />
        </mxCell>
        <mxCell id="iCD_IcLdnUCjqHumPRnd-13" value="&lt;b&gt;MAC:&amp;nbsp;0001.4364.4AC1&lt;/b&gt;" style="text;html=1;strokeColor=none;fillColor=none;align=center;verticalAlign=middle;whiteSpace=wrap;rounded=0;fontColor=#000000;" parent="1" vertex="1">
          <mxGeometry x="320" y="230" width="150" height="30" as="geometry" />
        </mxCell>
        <mxCell id="iCD_IcLdnUCjqHumPRnd-14" value="&lt;b&gt;MAC:&amp;nbsp;0003.E40E.9B2B&lt;/b&gt;" style="text;html=1;strokeColor=none;fillColor=none;align=center;verticalAlign=middle;whiteSpace=wrap;rounded=0;fontColor=#000000;" parent="1" vertex="1">
          <mxGeometry x="535.5" y="530" width="150" height="30" as="geometry" />
        </mxCell>
        <mxCell id="iCD_IcLdnUCjqHumPRnd-15" value="&lt;b&gt;MAC:&amp;nbsp;0060.3EAE.A365&lt;/b&gt;" style="text;html=1;strokeColor=none;fillColor=none;align=center;verticalAlign=middle;whiteSpace=wrap;rounded=0;fontColor=#000000;" parent="1" vertex="1">
          <mxGeometry x="755.5" y="230" width="150" height="30" as="geometry" />
        </mxCell>
        <mxCell id="iCD_IcLdnUCjqHumPRnd-16" value="&lt;b&gt;&lt;font&gt;ROOT&lt;/font&gt;&lt;/b&gt;" style="text;html=1;strokeColor=none;fillColor=none;align=center;verticalAlign=middle;whiteSpace=wrap;rounded=0;fontColor=#CC6600;" parent="1" vertex="1">
          <mxGeometry x="280" y="260" width="60" height="30" as="geometry" />
        </mxCell>
        <mxCell id="iCD_IcLdnUCjqHumPRnd-17" value="&lt;font color=&quot;#000000&quot;&gt;&lt;b&gt;F0/2 -- DESG&lt;/b&gt;&lt;/font&gt;" style="text;html=1;strokeColor=none;fillColor=none;align=center;verticalAlign=middle;whiteSpace=wrap;rounded=0;fontColor=#CC6600;" parent="1" vertex="1">
          <mxGeometry x="256" y="333" width="80" height="30" as="geometry" />
        </mxCell>
        <mxCell id="iCD_IcLdnUCjqHumPRnd-18" value="&lt;font color=&quot;#000000&quot;&gt;&lt;b&gt;F0/2 -- ALTN&lt;/b&gt;&lt;/font&gt;" style="text;html=1;strokeColor=none;fillColor=none;align=center;verticalAlign=middle;whiteSpace=wrap;rounded=0;fontColor=#CC6600;" parent="1" vertex="1">
          <mxGeometry x="470" y="518" width="85.5" height="30" as="geometry" />
        </mxCell>
        <mxCell id="iCD_IcLdnUCjqHumPRnd-19" value="&lt;font color=&quot;#000000&quot;&gt;&lt;b&gt;F0/4 -- DESG&lt;/b&gt;&lt;/font&gt;" style="text;html=1;strokeColor=none;fillColor=none;align=center;verticalAlign=middle;whiteSpace=wrap;rounded=0;fontColor=#CC6600;" parent="1" vertex="1">
          <mxGeometry x="661" y="514" width="85.5" height="30" as="geometry" />
        </mxCell>
        <mxCell id="iCD_IcLdnUCjqHumPRnd-20" value="&lt;font color=&quot;#000000&quot;&gt;&lt;b&gt;F0/2 -- ALTN&lt;/b&gt;&lt;/font&gt;" style="text;html=1;strokeColor=none;fillColor=none;align=center;verticalAlign=middle;whiteSpace=wrap;rounded=0;fontColor=#CC6600;" parent="1" vertex="1">
          <mxGeometry x="853" y="327" width="85.5" height="30" as="geometry" />
        </mxCell>
        <mxCell id="iCD_IcLdnUCjqHumPRnd-21" value="&lt;font color=&quot;#000000&quot;&gt;&lt;b&gt;F0/4 -- ALTN&lt;/b&gt;&lt;/font&gt;" style="text;html=1;strokeColor=none;fillColor=none;align=center;verticalAlign=middle;whiteSpace=wrap;rounded=0;fontColor=#CC6600;" parent="1" vertex="1">
          <mxGeometry x="685.5" y="317" width="85.5" height="30" as="geometry" />
        </mxCell>
        <mxCell id="iCD_IcLdnUCjqHumPRnd-22" value="" style="shape=cross;whiteSpace=wrap;html=1;rotation=45;fillColor=#f8cecc;strokeColor=#b85450;" parent="1" vertex="1">
          <mxGeometry x="825" y="327" width="30" height="30" as="geometry" />
        </mxCell>
        <mxCell id="iCD_IcLdnUCjqHumPRnd-25" value="&lt;font color=&quot;#000000&quot;&gt;&lt;b&gt;F0/4 -- DESG&lt;/b&gt;&lt;/font&gt;" style="text;html=1;strokeColor=none;fillColor=none;align=center;verticalAlign=middle;whiteSpace=wrap;rounded=0;fontColor=#CC6600;" parent="1" vertex="1">
          <mxGeometry x="431" y="317" width="80" height="30" as="geometry" />
        </mxCell>
        <mxCell id="iCD_IcLdnUCjqHumPRnd-29" value="&lt;b&gt;COST: 19&lt;/b&gt;" style="text;html=1;strokeColor=none;fillColor=none;align=center;verticalAlign=middle;whiteSpace=wrap;rounded=0;fontColor=#000000;" parent="1" vertex="1">
          <mxGeometry x="580.5" y="263" width="60" height="30" as="geometry" />
        </mxCell>
        <mxCell id="iCD_IcLdnUCjqHumPRnd-33" value="&lt;b&gt;COST: 19&lt;/b&gt;" style="text;html=1;strokeColor=none;fillColor=none;align=center;verticalAlign=middle;whiteSpace=wrap;rounded=0;fontColor=#000000;" parent="1" vertex="1">
          <mxGeometry x="276" y="430" width="60" height="30" as="geometry" />
        </mxCell>
        <mxCell id="iCD_IcLdnUCjqHumPRnd-37" value="" style="triangle;whiteSpace=wrap;html=1;rotation=-90;fillColor=#d5e8d4;strokeColor=#82b366;" parent="1" vertex="1">
          <mxGeometry x="450" y="299" width="19" height="19" as="geometry" />
        </mxCell>
        <mxCell id="iCD_IcLdnUCjqHumPRnd-41" value="" style="triangle;whiteSpace=wrap;html=1;rotation=-90;fillColor=#d5e8d4;strokeColor=#82b366;" parent="1" vertex="1">
          <mxGeometry x="340.5" y="339" width="19" height="19" as="geometry" />
        </mxCell>
        <mxCell id="iCD_IcLdnUCjqHumPRnd-43" value="" style="triangle;whiteSpace=wrap;html=1;rotation=-90;fillColor=#d5e8d4;strokeColor=#82b366;" parent="1" vertex="1">
          <mxGeometry x="511" y="468" width="19" height="19" as="geometry" />
        </mxCell>
        <mxCell id="iCD_IcLdnUCjqHumPRnd-44" value="" style="triangle;whiteSpace=wrap;html=1;rotation=-90;fillColor=#d5e8d4;strokeColor=#82b366;" parent="1" vertex="1">
          <mxGeometry x="681" y="498" width="19" height="19" as="geometry" />
        </mxCell>
        <mxCell id="6-lfDugaZAaRlOOavOw_-1" style="edgeStyle=orthogonalEdgeStyle;rounded=1;orthogonalLoop=1;jettySize=auto;html=1;exitX=0.98;exitY=0.5;exitDx=0;exitDy=0;exitPerimeter=0;entryX=0;entryY=0.5;entryDx=0;entryDy=0;entryPerimeter=0;strokeColor=default;endArrow=none;endFill=0;" edge="1" parent="1">
          <mxGeometry relative="1" as="geometry">
            <mxPoint x="428.98" y="287" as="sourcePoint" />
            <mxPoint x="780" y="287" as="targetPoint" />
          </mxGeometry>
        </mxCell>
        <mxCell id="6-lfDugaZAaRlOOavOw_-2" value="&lt;font color=&quot;#000000&quot;&gt;&lt;b&gt;F0/3 -- ROOT&lt;/b&gt;&lt;/font&gt;" style="text;html=1;strokeColor=none;fillColor=none;align=center;verticalAlign=middle;whiteSpace=wrap;rounded=0;fontColor=#CC6600;" vertex="1" parent="1">
          <mxGeometry x="685.5" y="257" width="85.5" height="30" as="geometry" />
        </mxCell>
        <mxCell id="6-lfDugaZAaRlOOavOw_-3" value="&lt;font color=&quot;#000000&quot;&gt;&lt;b&gt;F0/3 -- DESG&lt;/b&gt;&lt;/font&gt;" style="text;html=1;strokeColor=none;fillColor=none;align=center;verticalAlign=middle;whiteSpace=wrap;rounded=0;fontColor=#CC6600;" vertex="1" parent="1">
          <mxGeometry x="431" y="253" width="80" height="30" as="geometry" />
        </mxCell>
        <mxCell id="6-lfDugaZAaRlOOavOw_-4" value="" style="triangle;whiteSpace=wrap;html=1;rotation=-90;fillColor=#d5e8d4;strokeColor=#82b366;" vertex="1" parent="1">
          <mxGeometry x="450" y="274" width="19" height="19" as="geometry" />
        </mxCell>
        <mxCell id="6-lfDugaZAaRlOOavOw_-5" value="" style="triangle;whiteSpace=wrap;html=1;rotation=-90;fillColor=#d5e8d4;strokeColor=#82b366;" vertex="1" parent="1">
          <mxGeometry x="736.5" y="275" width="19" height="19" as="geometry" />
        </mxCell>
        <mxCell id="6-lfDugaZAaRlOOavOw_-6" value="Так как номер порта наименьший, то для данного линка со стороны S3 будет корневой порт" style="shape=callout;whiteSpace=wrap;html=1;perimeter=calloutPerimeter;size=30;position=0.29;position2=0.18;" vertex="1" parent="1">
          <mxGeometry x="467.5" y="208" width="280" height="60" as="geometry" />
        </mxCell>
        <mxCell id="6-lfDugaZAaRlOOavOw_-7" value="" style="shape=cross;whiteSpace=wrap;html=1;rotation=45;fillColor=#f8cecc;strokeColor=#b85450;" vertex="1" parent="1">
          <mxGeometry x="731.5" y="298" width="30" height="30" as="geometry" />
        </mxCell>
        <mxCell id="6-lfDugaZAaRlOOavOw_-8" value="&lt;b&gt;COST: 19&lt;/b&gt;" style="text;html=1;strokeColor=none;fillColor=none;align=center;verticalAlign=middle;whiteSpace=wrap;rounded=0;fontColor=#000000;" vertex="1" parent="1">
          <mxGeometry x="580.5" y="307" width="60" height="30" as="geometry" />
        </mxCell>
        <mxCell id="6-lfDugaZAaRlOOavOw_-11" value="&lt;font color=&quot;#000000&quot;&gt;&lt;b&gt;F0/3 -- DESG&lt;/b&gt;&lt;/font&gt;" style="text;html=1;strokeColor=none;fillColor=none;align=center;verticalAlign=middle;whiteSpace=wrap;rounded=0;fontColor=#CC6600;" vertex="1" parent="1">
          <mxGeometry x="670" y="438" width="85.5" height="30" as="geometry" />
        </mxCell>
        <mxCell id="6-lfDugaZAaRlOOavOw_-12" value="" style="triangle;whiteSpace=wrap;html=1;rotation=-90;fillColor=#d5e8d4;strokeColor=#82b366;" vertex="1" parent="1">
          <mxGeometry x="681" y="471" width="19" height="19" as="geometry" />
        </mxCell>
        <mxCell id="6-lfDugaZAaRlOOavOw_-13" value="" style="shape=cross;whiteSpace=wrap;html=1;rotation=45;fillColor=#f8cecc;strokeColor=#b85450;" vertex="1" parent="1">
          <mxGeometry x="792" y="327" width="30" height="30" as="geometry" />
        </mxCell>
        <mxCell id="6-lfDugaZAaRlOOavOw_-14" value="&lt;font color=&quot;#000000&quot;&gt;&lt;b&gt;F0/1 -- ALTN&lt;/b&gt;&lt;/font&gt;" style="text;html=1;strokeColor=none;fillColor=none;align=center;verticalAlign=middle;whiteSpace=wrap;rounded=0;fontColor=#CC6600;" vertex="1" parent="1">
          <mxGeometry x="710" y="352" width="85.5" height="30" as="geometry" />
        </mxCell>
        <mxCell id="6-lfDugaZAaRlOOavOw_-15" value="&lt;b&gt;COST: 19&lt;/b&gt;" style="text;html=1;strokeColor=none;fillColor=none;align=center;verticalAlign=middle;whiteSpace=wrap;rounded=0;fontColor=#000000;" vertex="1" parent="1">
          <mxGeometry x="746.5" y="408" width="60" height="30" as="geometry" />
        </mxCell>
        <mxCell id="6-lfDugaZAaRlOOavOw_-16" value="&lt;b&gt;COST: 19&lt;/b&gt;" style="text;html=1;strokeColor=none;fillColor=none;align=center;verticalAlign=middle;whiteSpace=wrap;rounded=0;fontColor=#000000;" vertex="1" parent="1">
          <mxGeometry x="840" y="430" width="60" height="30" as="geometry" />
        </mxCell>
        <mxCell id="6-lfDugaZAaRlOOavOw_-24" value="" style="shape=callout;whiteSpace=wrap;html=1;perimeter=calloutPerimeter;size=30;position=0.82;position2=0.96;rotation=-180;" vertex="1" parent="1">
          <mxGeometry x="431" y="370" width="280" height="60" as="geometry" />
        </mxCell>
        <mxCell id="6-lfDugaZAaRlOOavOw_-25" value="&lt;span style=&quot;background-color: rgb(255, 255, 255);&quot;&gt;Так как номер порта наименьший, то для данного линка со стороны S2 будет корневой порт&lt;/span&gt;" style="text;html=1;strokeColor=none;fillColor=none;align=center;verticalAlign=middle;whiteSpace=wrap;rounded=0;" vertex="1" parent="1">
          <mxGeometry x="431" y="400" width="280" height="30" as="geometry" />
        </mxCell>
        <mxCell id="6-lfDugaZAaRlOOavOw_-30" value="" style="triangle;whiteSpace=wrap;html=1;rotation=-90;fillColor=#d5e8d4;strokeColor=#82b366;" vertex="1" parent="1">
          <mxGeometry x="376.5" y="339" width="19" height="19" as="geometry" />
        </mxCell>
        <mxCell id="6-lfDugaZAaRlOOavOw_-31" value="&lt;font color=&quot;#000000&quot;&gt;&lt;b&gt;F0/1 -- DESG&lt;/b&gt;&lt;/font&gt;" style="text;html=1;strokeColor=none;fillColor=none;align=center;verticalAlign=middle;whiteSpace=wrap;rounded=0;fontColor=#CC6600;" vertex="1" parent="1">
          <mxGeometry x="399" y="340" width="80" height="30" as="geometry" />
        </mxCell>
        <mxCell id="6-lfDugaZAaRlOOavOw_-32" value="&lt;font color=&quot;#000000&quot;&gt;&lt;b&gt;F0/1 -- ROOT&lt;/b&gt;&lt;/font&gt;" style="text;html=1;strokeColor=none;fillColor=none;align=center;verticalAlign=middle;whiteSpace=wrap;rounded=0;fontColor=#CC6600;" vertex="1" parent="1">
          <mxGeometry x="484.5" y="441" width="85.5" height="30" as="geometry" />
        </mxCell>
        <mxCell id="6-lfDugaZAaRlOOavOw_-33" value="" style="shape=cross;whiteSpace=wrap;html=1;rotation=45;fillColor=#f8cecc;strokeColor=#b85450;" vertex="1" parent="1">
          <mxGeometry x="506.5" y="496" width="30" height="30" as="geometry" />
        </mxCell>
        <mxCell id="6-lfDugaZAaRlOOavOw_-34" value="&lt;b&gt;COST: 19&lt;/b&gt;" style="text;html=1;strokeColor=none;fillColor=none;align=center;verticalAlign=middle;whiteSpace=wrap;rounded=0;fontColor=#000000;" vertex="1" parent="1">
          <mxGeometry x="388" y="430" width="60" height="30" as="geometry" />
        </mxCell>
      </root>
    </mxGraphModel>
  </diagram>
</mxfile>
